{
	"asset":{
		"generator":"Khronos glTF Blender I/O v4.3.47",
		"version":"2.0"
	},
	"scene":0,
	"scenes":[
		{
			"name":"Scene",
			"nodes":[
				0,
				1,
				2,
				3,
				4
			]
		}
	],
	"nodes":[
		{
			"mesh":0,
			"name":"Transponder",
			"scale":[
				1,
				0.5,
				1
			]
		},
		{
			"mesh":1,
			"name":"Mast",
			"translation":[
				0,
				-2,
				0
			]
		},
		{
			"mesh":2,
			"name":"Bridge",
			"translation":[
				0,
				-3,
				0
			]
		},
		{
			"mesh":3,
			"name":"Main hull",
			"scale":[
				2,
				2,
				6
			],
			"translation":[
				0,
				-6,
				-4
			]
		},
		{
			"mesh":4,
			"name":"Cube",
			"scale":[
				2,
				2,
				2
			],
			"translation":[
				0,
				-6,
				-12
			]
		}
	],
	"materials":[
		{
			"doubleSided":true,
			"name":"Transponder",
			"pbrMetallicRoughness":{
				"baseColorFactor":[
					0.008173875510692596,
					0.8002121448516846,
					0,
					1
				],
				"metallicFactor":0,
				"roughnessFactor":0.5
			}
		},
		{
			"doubleSided":true,
			"name":"Mast",
			"pbrMetallicRoughness":{
				"baseColorFactor":[
					0,
					0.1413654237985611,
					0.8002356290817261,
					1
				],
				"metallicFactor":0,
				"roughnessFactor":0.5
			}
		},
		{
			"doubleSided":true,
			"name":"Bridge",
			"pbrMetallicRoughness":{
				"metallicFactor":0,
				"roughnessFactor":0.5
			}
		},
		{
			"doubleSided":true,
			"name":"MainHull",
			"pbrMetallicRoughness":{
				"baseColorFactor":[
					0.800315260887146,
					0,
					0.00026580606936477125,
					1
				],
				"metallicFactor":0,
				"roughnessFactor":0.5
			}
		},
		{
			"doubleSided":true,
			"name":"Deck",
			"pbrMetallicRoughness":{
				"baseColorFactor":[
					0.5889131426811218,
					0.5889131426811218,
					0.5889131426811218,
					1
				],
				"metallicFactor":0,
				"roughnessFactor":0.5
			}
		}
	],
	"meshes":[
		{
			"name":"Sphere",
			"primitives":[
				{
					"attributes":{
						"POSITION":0,
						"NORMAL":1,
						"TEXCOORD_0":2
					},
					"indices":3,
					"material":0
				}
			]
		},
		{
			"name":"Cylinder",
			"primitives":[
				{
					"attributes":{
						"POSITION":4,
						"NORMAL":5,
						"TEXCOORD_0":6
					},
					"indices":7,
					"material":1
				}
			]
		},
		{
			"name":"Cube.001",
			"primitives":[
				{
					"attributes":{
						"POSITION":8,
						"NORMAL":9,
						"TEXCOORD_0":10
					},
					"indices":11,
					"material":2
				}
			]
		},
		{
			"name":"Cube.002",
			"primitives":[
				{
					"attributes":{
						"POSITION":12,
						"NORMAL":13,
						"TEXCOORD_0":14
					},
					"indices":15,
					"material":3
				},
				{
					"attributes":{
						"POSITION":16,
						"NORMAL":17,
						"TEXCOORD_0":18
					},
					"indices":19,
					"material":4
				}
			]
		},
		{
			"name":"Cube.003",
			"primitives":[
				{
					"attributes":{
						"POSITION":20,
						"NORMAL":21,
						"TEXCOORD_0":22
					},
					"indices":23,
					"material":3
				},
				{
					"attributes":{
						"POSITION":24,
						"NORMAL":25,
						"TEXCOORD_0":26
					},
					"indices":19,
					"material":4
				}
			]
		}
	],
	"accessors":[
		{
			"bufferView":0,
			"componentType":5126,
			"count":736,
			"max":[
				1,
				1,
				1
			],
			"min":[
				-0.9999999403953552,
				-1,
				-1
			],
			"type":"VEC3"
		},
		{
			"bufferView":1,
			"componentType":5126,
			"count":736,
			"type":"VEC3"
		},
		{
			"bufferView":2,
			"componentType":5126,
			"count":736,
			"type":"VEC2"
		},
		{
			"bufferView":3,
			"componentType":5123,
			"count":1056,
			"type":"SCALAR"
		},
		{
			"bufferView":4,
			"componentType":5126,
			"count":72,
			"max":[
				0.5,
				2,
				0.5
			],
			"min":[
				-0.5,
				-2,
				-0.5
			],
			"type":"VEC3"
		},
		{
			"bufferView":5,
			"componentType":5126,
			"count":72,
			"type":"VEC3"
		},
		{
			"bufferView":6,
			"componentType":5126,
			"count":72,
			"type":"VEC2"
		},
		{
			"bufferView":7,
			"componentType":5123,
			"count":132,
			"type":"SCALAR"
		},
		{
			"bufferView":8,
			"componentType":5126,
			"count":24,
			"max":[
				1,
				1,
				1
			],
			"min":[
				-1,
				-1,
				-1
			],
			"type":"VEC3"
		},
		{
			"bufferView":9,
			"componentType":5126,
			"count":24,
			"type":"VEC3"
		},
		{
			"bufferView":10,
			"componentType":5126,
			"count":24,
			"type":"VEC2"
		},
		{
			"bufferView":11,
			"componentType":5123,
			"count":36,
			"type":"SCALAR"
		},
		{
			"bufferView":12,
			"componentType":5126,
			"count":20,
			"max":[
				1,
				1,
				1
			],
			"min":[
				-1,
				-1,
				-1
			],
			"type":"VEC3"
		},
		{
			"bufferView":13,
			"componentType":5126,
			"count":20,
			"type":"VEC3"
		},
		{
			"bufferView":14,
			"componentType":5126,
			"count":20,
			"type":"VEC2"
		},
		{
			"bufferView":15,
			"componentType":5123,
			"count":30,
			"type":"SCALAR"
		},
		{
			"bufferView":16,
			"componentType":5126,
			"count":4,
			"max":[
				1,
				1,
				1
			],
			"min":[
				-1,
				1,
				-1
			],
			"type":"VEC3"
		},
		{
			"bufferView":17,
			"componentType":5126,
			"count":4,
			"type":"VEC3"
		},
		{
			"bufferView":18,
			"componentType":5126,
			"count":4,
			"type":"VEC2"
		},
		{
			"bufferView":19,
			"componentType":5123,
			"count":6,
			"type":"SCALAR"
		},
		{
			"bufferView":20,
			"componentType":5126,
			"count":20,
			"max":[
				1,
				1,
				1
			],
			"min":[
				-1,
				-1,
				-1
			],
			"type":"VEC3"
		},
		{
			"bufferView":21,
			"componentType":5126,
			"count":20,
			"type":"VEC3"
		},
		{
			"bufferView":22,
			"componentType":5126,
			"count":20,
			"type":"VEC2"
		},
		{
			"bufferView":23,
			"componentType":5123,
			"count":30,
			"type":"SCALAR"
		},
		{
			"bufferView":24,
			"componentType":5126,
			"count":4,
			"max":[
				1,
				1,
				1
			],
			"min":[
				-1,
				1,
				-1
			],
			"type":"VEC3"
		},
		{
			"bufferView":25,
			"componentType":5126,
			"count":4,
			"type":"VEC3"
		},
		{
			"bufferView":26,
			"componentType":5126,
			"count":4,
			"type":"VEC2"
		}
	],
	"bufferViews":[
		{
			"buffer":0,
			"byteLength":8832,
			"byteOffset":0,
			"target":34962
		},
		{
			"buffer":0,
			"byteLength":8832,
			"byteOffset":8832,
			"target":34962
		},
		{
			"buffer":0,
			"byteLength":5888,
			"byteOffset":17664,
			"target":34962
		},
		{
			"buffer":0,
			"byteLength":2112,
			"byteOffset":23552,
			"target":34963
		},
		{
			"buffer":0,
			"byteLength":864,
			"byteOffset":25664,
			"target":34962
		},
		{
			"buffer":0,
			"byteLength":864,
			"byteOffset":26528,
			"target":34962
		},
		{
			"buffer":0,
			"byteLength":576,
			"byteOffset":27392,
			"target":34962
		},
		{
			"buffer":0,
			"byteLength":264,
			"byteOffset":27968,
			"target":34963
		},
		{
			"buffer":0,
			"byteLength":288,
			"byteOffset":28232,
			"target":34962
		},
		{
			"buffer":0,
			"byteLength":288,
			"byteOffset":28520,
			"target":34962
		},
		{
			"buffer":0,
			"byteLength":192,
			"byteOffset":28808,
			"target":34962
		},
		{
			"buffer":0,
			"byteLength":72,
			"byteOffset":29000,
			"target":34963
		},
		{
			"buffer":0,
			"byteLength":240,
			"byteOffset":29072,
			"target":34962
		},
		{
			"buffer":0,
			"byteLength":240,
			"byteOffset":29312,
			"target":34962
		},
		{
			"buffer":0,
			"byteLength":160,
			"byteOffset":29552,
			"target":34962
		},
		{
			"buffer":0,
			"byteLength":60,
			"byteOffset":29712,
			"target":34963
		},
		{
			"buffer":0,
			"byteLength":48,
			"byteOffset":29772,
			"target":34962
		},
		{
			"buffer":0,
			"byteLength":48,
			"byteOffset":29820,
			"target":34962
		},
		{
			"buffer":0,
			"byteLength":32,
			"byteOffset":29868,
			"target":34962
		},
		{
			"buffer":0,
			"byteLength":12,
			"byteOffset":29900,
			"target":34963
		},
		{
			"buffer":0,
			"byteLength":240,
			"byteOffset":29912,
			"target":34962
		},
		{
			"buffer":0,
			"byteLength":240,
			"byteOffset":30152,
			"target":34962
		},
		{
			"buffer":0,
			"byteLength":160,
			"byteOffset":30392,
			"target":34962
		},
		{
			"buffer":0,
			"byteLength":60,
			"byteOffset":30552,
			"target":34963
		},
		{
			"buffer":0,
			"byteLength":48,
			"byteOffset":30612,
			"target":34962
		},
		{
			"buffer":0,
			"byteLength":48,
			"byteOffset":30660,
			"target":34962
		},
		{
			"buffer":0,
			"byteLength":32,
			"byteOffset":30708,
			"target":34962
		}
	],
	"buffers":[
		{
			"byteLength":30740,
			"uri":"GenericShipComponents.bin"
		}
	]
}
